<?xml version="1.0" standalone="no"?>
<!DOCTYPE svg PUBLIC "-//W3C//DTD SVG 20010904//EN"
 "http://www.w3.org/TR/2001/REC-SVG-20010904/DTD/svg10.dtd">
<svg version="1.0" xmlns="http://www.w3.org/2000/svg"
 width="700.000000pt" height="700.000000pt" viewBox="0 0 700.000000 700.000000"
 preserveAspectRatio="xMidYMid meet">
<metadata>
Created by potrace 1.14, written by Peter Selinger 2001-2017
</metadata>
<g transform="translate(0.000000,700.000000) scale(0.100000,-0.100000)"
fill="#232e53" stroke="none">
<path d="M3905 4858 c-3 -7 -4 -726 -3 -1598 l3 -1585 368 -3 367 -2 0 607 c0
672 5 738 60 880 54 139 158 250 272 290 74 25 225 25 293 -1 64 -25 137 -94
163 -155 38 -86 43 -183 49 -914 l6 -707 366 2 366 3 0 770 c0 602 -3 790 -14
860 -55 366 -229 596 -512 683 -92 28 -249 45 -344 37 -246 -20 -424 -105
-612 -290 l-93 -92 0 614 0 613 -365 0 c-283 0 -367 -3 -370 -12z"/>
<path d="M2135 4024 c-421 -32 -661 -142 -785 -359 -15 -27 -39 -84 -52 -125
-20 -66 -23 -94 -23 -240 1 -152 3 -171 28 -247 95 -284 325 -408 897 -483
293 -38 378 -66 427 -139 29 -43 31 -129 5 -181 -56 -113 -248 -162 -540 -140
-248 18 -454 65 -657 150 -55 23 -108 44 -118 47 -16 5 -17 -11 -15 -273 l3
-278 70 -18 c364 -93 754 -137 1052 -118 248 16 411 53 563 127 76 38 111 63
176 128 94 92 141 179 169 309 26 117 17 321 -19 432 -28 87 -83 180 -137 231
-127 120 -359 195 -799 258 -135 19 -270 42 -300 51 -113 32 -160 82 -160 169
0 97 59 157 190 192 99 26 346 23 515 -6 148 -26 317 -73 467 -129 l103 -39 3
275 c1 151 0 277 -2 280 -15 15 -346 79 -523 102 -146 19 -435 32 -538 24z"/>
</g>
</svg>
